<?xml version="1.0" encoding="iso-8859-1"?>
<!-- Uploaded to: SVG Repo, www.svgrepo.com, Generator: SVG Repo Mixer Tools -->
<!DOCTYPE svg PUBLIC "-//W3C//DTD SVG 1.1//EN" "http://www.w3.org/Graphics/SVG/1.1/DTD/svg11.dtd">
<svg fill="#000000" height="800px" width="800px" version="1.1" id="Capa_1" xmlns="http://www.w3.org/2000/svg" xmlns:xlink="http://www.w3.org/1999/xlink" 
	 viewBox="0 0 297 297" xml:space="preserve">
<g>
	<g>
		<path d="M105.488,207.402c10.641,3.549,31.168,11.596,40.457,17.883l58.258,39.447c9.289,6.289,20.674,3.863,25.301-5.393
			c4.625-9.254,2.223-23.602-5.344-31.883l-27.803-30.18h80.248c11.217,0.059,20.395-8.82,20.395-20.037v-0.969
			c0-11.217-9.178-20.395-20.395-20.395c11.217,0,20.395-9.178,20.395-20.395v-1.58c0-11.217-9.178-20.394-20.395-20.394h-14.733
			c11.217,0,20.393-9.178,20.393-20.395v-1.58c0-11.217-9.176-20.395-20.393-20.395h-16.826c11.215,0,20.395-9.178,20.395-20.395
			v-1.58c0-11.217-9.18-20.395-20.395-20.395h-78.771c-11.217,0-28.602,4.106-38.637,9.121l-22.15,11.076V207.402z"/>
	</g>
	<g>
		<path d="M26.574,225.129h36.709c13.758,0,25.082-10.518,26.418-23.93V56.863l-0.141,0.068C87.643,44.152,76.59,34.32,63.283,34.32
			H26.574C11.922,34.32,0,46.24,0,60.893v137.662C0,213.207,11.922,225.129,26.574,225.129z"/>
	</g>
</g>
</svg>